<!DOCTYPE svg PUBLIC "-//W3C//DTD SVG 1.1//EN" "http://www.w3.org/Graphics/SVG/1.1/DTD/svg11.dtd">
<!-- Uploaded to: SVG Repo, www.svgrepo.com, Transformed by: SVG Repo Mixer Tools -->
<svg fill="#000000" height="800px" width="800px" version="1.1" id="Layer_1" xmlns="http://www.w3.org/2000/svg" xmlns:xlink="http://www.w3.org/1999/xlink" viewBox="0 0 512 512" xml:space="preserve">
<g id="SVGRepo_bgCarrier" stroke-width="0"/>
<g id="SVGRepo_tracerCarrier" stroke-linecap="round" stroke-linejoin="round"/>
<g id="SVGRepo_iconCarrier"> <g> <g> <path d="M496.652,82.457c-19.517-19.52-50.235-20.561-68.472-2.322L315.666,192.65H16.686C7.471,192.65,0,200.121,0,209.336 v77.869c0,65.262,41.849,120.924,100.118,141.587v25.276c0,27.602,22.456,50.059,50.059,50.059h133.49 c27.602,0,50.059-22.456,50.059-50.059v-25.276c58.269-20.662,100.118-76.324,100.118-141.587V216.06l65.131-65.131 C517.213,132.69,516.171,101.975,496.652,82.457z M300.353,454.068c0,9.201-7.485,16.686-16.686,16.686h-133.49 c-9.201,0-16.686-7.485-16.686-16.686V436.45c5.481,0.608,11.046,0.932,16.686,0.932h133.49c5.64,0,11.205-0.324,16.686-0.932 V454.068z M400.471,287.205c0,64.406-52.398,116.804-116.804,116.804h-133.49c-64.406,0-116.804-52.398-116.804-116.804v-61.183 h367.099V287.205z M475.377,127.332l-65.319,65.319H362.86l88.918-88.918c5.135-5.135,14.879-4.073,21.276,2.323 C479.45,112.452,480.513,122.194,475.377,127.332z"/> </g> </g> <g> <g> <path d="M218.996,70.356c-10.327-5.973-10.342-25.367,0-31.349c7.977-4.614,10.703-14.822,6.089-22.799 c-4.614-7.977-14.821-10.705-22.799-6.089c-32.52,18.812-32.536,70.304,0,89.125c10.327,5.975,10.342,25.369,0,31.351 c-7.977,4.614-10.703,14.822-6.089,22.799c3.093,5.346,8.697,8.334,14.459,8.334c2.836,0,5.709-0.723,8.34-2.246 C251.517,140.67,251.533,89.177,218.996,70.356z"/> </g> </g> <g> <g> <path d="M152.251,70.356c-10.327-5.973-10.342-25.367,0-31.349c7.977-4.614,10.703-14.822,6.089-22.799 c-4.614-7.977-14.822-10.705-22.799-6.089c-32.52,18.812-32.536,70.304,0,89.125c10.327,5.975,10.342,25.369,0,31.351 c-7.977,4.614-10.703,14.822-6.089,22.799c3.093,5.346,8.697,8.334,14.459,8.334c2.836,0,5.709-0.723,8.34-2.246 C184.772,140.67,184.787,89.177,152.251,70.356z"/> </g> </g> <g> <g> <path d="M285.742,70.356c-10.327-5.973-10.342-25.367,0-31.349c7.977-4.614,10.703-14.822,6.089-22.799 c-4.614-7.977-14.821-10.705-22.799-6.089c-32.52,18.812-32.536,70.304,0,89.125c10.327,5.975,10.342,25.369,0,31.351 c-7.977,4.614-10.703,14.822-6.089,22.799c3.093,5.346,8.697,8.334,14.459,8.334c2.836,0,5.709-0.723,8.34-2.246 C318.262,140.67,318.278,89.177,285.742,70.356z"/> </g> </g> <g> <g> <path d="M150.177,337.264c-27.602,0-50.059-22.456-50.059-50.059c0-9.215-7.471-16.686-16.686-16.686s-16.686,7.471-16.686,16.686 c0,46.005,37.427,83.432,83.431,83.432c9.215,0,16.686-7.471,16.686-16.686S159.392,337.264,150.177,337.264z"/> </g> </g> </g>
</svg>